# xmcd CD database file
#
# Track frame offsets:
#	150
#	29650
#	53533
#	70108
#	88693
#	109318
#	131331
#	155968
#	184168
#	199393
#	223694
#	247281
#	272368
#	295393
#	311855
#
# Disc length: 4466 seconds
#
# Revision: 0
# Processed by: cddbd v1.5.1PL0 Copyright (c) Steve Scherf et al.
# Submitted via: CDex 1.51
#
DISCID=f011700f
DTITLE=S.E.N.S. - The Very Best of S.E.N.S. Disc 2
DYEAR=2004
DGENRE=New Age
TTITLE0=Future
TTITLE1=처음 만났을 때의 너로 머물러줘
TTITLE2=Peace
TTITLE3=Rainbow On The Moon
TTITLE4=Aurora
TTITLE5=Maria
TTITLE6=Something In The Air
TTITLE7=Asain Blue_달이 유영하는 바다
TTITLE8=Feel Me
TTITLE9=Lunar Dream
TTITLE10=Requiem
TTITLE11=The God of The Sea
TTITLE12=Like Wind
TTITLE13=Love In The Song
TTITLE14=Palace Memories
EXTD=YEAR: 2004
EXTT0=
EXTT1=
EXTT2=
EXTT3=
EXTT4=
EXTT5=
EXTT6=
EXTT7=
EXTT8=
EXTT9=
EXTT10=
EXTT11=
EXTT12=
EXTT13=
EXTT14=
PLAYORDER=
